<?xml version="1.0" encoding="UTF-8"?>
<svg id="Ankh" xmlns="http://www.w3.org/2000/svg" viewBox="0 0 13.69 22.63">
  <defs>
    <style>
      .cls-1 {
        fill: #fff;
      }

      .cls-2 {
        fill: none;
        stroke: #fff;
        stroke-miterlimit: 10;
        stroke-width: 2px;
      }
    </style>
  </defs>
  <path class="cls-1" d="M6.56,0C4.19,0,2.52,2.76,2.54,4.92c.02,1.52.87,2.63,1.13,2.98.48.63,1.47,1.97,2.88,1.94,1.37-.03,2.29-1.33,2.88-2.17.42-.59,1.07-1.52,1.13-2.75.1-2.11-1.58-4.92-4.01-4.92ZM6.56,8.45c-.91.02-1.57-.73-1.92-1.13-.23-.25-.97-1.15-.96-2.41,0-1.57,1.2-3.53,2.88-3.53s2.93,1.99,2.88,3.53c-.03,1.01-.6,1.76-.88,2.13-.41.54-1.05,1.38-2,1.4Z"/>
  <line class="cls-2" y1="9.52" x2="13.11" y2="9.52"/>
  <line class="cls-2" x1="6.56" y1="9.52" x2="6.56" y2="22.63"/>
</svg>