<?xml version="1.0" encoding="UTF-8"?>
<svg id="Layer_1" data-name="Layer 1" xmlns="http://www.w3.org/2000/svg" viewBox="0 0 600 600">
  <defs>
    <style>
      .cls-1 {
        fill: #fff;
      }

      .cls-2 {
        fill: #1a1919;
      }
    </style>
  </defs>
  <rect class="cls-2" width="600" height="600"/>
  <path class="cls-1" d="M19.39,295.69c.07-.77.76-1.2,1.21-1.7,0,0,.87-.85.87-.85,0,0,1.76-1.68,1.76-1.68,36.82-34.13,79.6-61.55,125.44-82,106.4-47.46,219.91-46.55,324.8,4.65,40.4,19.75,77.9,45.49,112.01,74.67,0,0,7.24,6.19,7.24,6.19l-6.61,7.01c-55.51,55.57-129.44,100.85-206.09,119.51-100.96,24.84-202.71.33-286.28-59.86-21.46-15.09-41.66-32.59-60.32-50.96-4.4-4.33-9.83-10.47-14.02-14.98h0ZM21.69,295.66c8.63,6.59,17.86,13.8,26.43,20.43,109.57,83.45,229.34,117.3,362.72,71.53,58.6-20.18,113.32-52.73,158.71-95.06,1.11-1.06,2.3-2.23,3.25-3.19,0,0,.62,13.2.62,13.2-31.94-28.41-66.89-53.63-104.85-73.33-140.48-73.74-291.91-48.3-417.4,43-10,7.33-19.78,15.09-28.96,23.44,0,0-.44.41-.44.41,0,0-.22.2-.22.2-.08.08.12-.12.12-.22.05-.13.04-.29,0-.41h0Z"/>
  <g id="pupil">
    <g>
      <path class="cls-1" d="M300,201.74c-54.27,0-98.26,43.99-98.26,98.26s43.99,98.26,98.26,98.26,98.26-43.99,98.26-98.26-43.99-98.26-98.26-98.26ZM300,377.04c-42.38,0-76.73-34.49-76.73-77.04s34.35-77.04,76.73-77.04,76.73,34.49,76.73,77.04-34.35,77.04-76.73,77.04Z"/>
      <g>
        <path class="cls-1" d="M300,202.04c-33.87-.3-65.66,19.54-82.17,48.72-29.21,50.21-10.13,116.99,44.95,139.09,55.4,22.41,119.38-12.65,130.45-71.3,11.85-57.94-33.08-116.72-93.24-116.51h0ZM300,201.44c37.57-.4,74.88,21.19,91.38,55.34,36.12,74.76-29.61,158.39-110.81,140.86-62.3-13.25-100.22-82.29-71.76-140.77,16.29-34.26,53.67-55.75,91.18-55.43h0Z"/>
        <path class="cls-1" d="M300,377.34c-30.72.28-61.53-18.02-73.36-46.9-21.65-51.07,18.98-108.01,73.36-109.12,61.76-1.65,100.85,67.28,68.12,119.59-14.4,22.97-41.25,36.67-68.12,36.44h0ZM300,376.74c40.96.37,74.14-36.8,73.53-76.74.53-52.07-53.93-89.86-102.55-70.22-44.34,17.77-57.66,72.53-32.83,111.65,12.97,21.11,36.74,35.62,61.86,35.32h0Z"/>
      </g>
    </g>
    <path class="cls-1" d="M323.65,281.34c.06,22.99-23.01,33.63-39.22,16.52-11.92-12.64-9.82-32.62,6.75-40.12,6.11-2.75,13.43-2.65,19.46.22,8.83,4.12,13.1,14.14,13.01,23.38h0ZM323.05,281.34c-.26-17.22-23.96-25.2-35.93-13.83-10.78,9.88-9.19,28.57,5.9,33,12.61,3.45,29.99-4.69,30.04-19.16h0Z"/>
    <path class="cls-1" d="M280.32,253.99c5.64,5.9,12.09,14.13,20.24,14.55,3.9.08,7.34-2.21,10.39-4.72,3.32-2.83,6.33-6.34,9.66-9.82-1.15,4.68-3.15,9.13-6.25,13.08-13.11,16.16-30.42,3.41-34.04-13.08h0Z"/>
    <path class="cls-1" d="M301.25,303.74c1.95,2.9,2.76,6.02,2.2,9.33-.39,1.55-1.36,3.11-1.53,4.66-.21,1.55.1,3.11.67,4.66,2.27,6.05,2.19,13.08-1.34,18.66,0,0-.6,0-.6,0-1.8-2.81-2.65-6.09-2.91-9.33-.08-2.34.32-4.7.79-7,.66-2.26,1.84-4.63,1.45-7-.18-1.55-1.15-3.11-1.53-4.66-.39-1.56-.14-3.12.17-4.66.36-1.55.9-3.11,2.04-4.66,0,0,.6,0,.6,0h0Z"/>
    <path class="cls-1" d="M300.67,340.94c-.81-3.28.08-6.63,2.51-8.83,1.3-1.02,3.09-1.49,4.44-2.22,1.65-.87,3.71-2.36,5.94-2.51,1.43-.16,2.93.3,4.15,1.01,4.65,2.38,6.68,7.54,5.91,12.53,0,0-.55.25-.55.25-1.44-.78-2.57-1.73-3.73-2.74-1.95-1.66-3.48-3.55-4.92-5.42-.74-.74-1.39-1.53-2.3-2.07-1.06-.63-2.52-.36-3.4.53-1.21,1.18-1.17,3.21-2.03,4.6-1.51,2.13-2.96,3.65-5.46,5.08,0,0-.56-.22-.56-.22h0Z"/>
    <path class="cls-1" d="M300.68,341.31c-2.82-1.45-4.83-3.13-6.21-5.77-.63-1.82-1.08-4.34-3.3-4.74-1.13-.29-2.11.37-2.63,1.27-.58.77-1.04,1.6-1.47,2.52-.77,1.76-1.81,3.19-3.02,4.87-.95,1.22-1.88,2.38-3.15,3.42,0,0-.58-.15-.58-.15-1.66-4.81-.74-10.22,3.41-13.5,1.49-1.36,3.81-2.08,5.77-1.47,1.68.49,3.01,1.61,4.48,2.43,1.98,1.08,4.77,1.72,5.91,3.95,1.21,2.13,1.85,4.29,1.33,6.92,0,0-.54.26-.54.26h0Z"/>
    <path class="cls-1" d="M285.02,313.77c9.43-4.05,22.41-4.08,31.85,0-9.43,4.08-22.41,4.05-31.85,0h0Z"/>
  </g>
</svg>