<?xml version="1.0" encoding="UTF-8"?>
<svg id="mercury" xmlns="http://www.w3.org/2000/svg" viewBox="0 0 35.94 45.66">
  <defs>
    <style>
      .cls-1 {
        stroke: #fff;
        stroke-miterlimit: 10;
        stroke-width: 3px;
      }

      .cls-1, .cls-2 {
        fill: #fff;
      }
    </style>
  </defs>
  <path class="cls-2" d="M19.18,9.84c3.54-1.99,6.03-5.61,6.48-9.84h-3.35c-.67,4.62-4.64,8.18-9.44,8.18S4.09,4.62,3.43,0H.08c.45,4.23,2.95,7.84,6.48,9.84C2.65,12.04,0,16.23,0,21.05c0,7.11,5.76,12.87,12.87,12.87s12.87-5.76,12.87-12.87c0-4.82-2.65-9.01-6.56-11.21ZM12.87,30.6c-5.28,0-9.56-4.28-9.56-9.56s4.28-9.56,9.56-9.56,9.56,4.28,9.56,9.56-4.28,9.56-9.56,9.56Z"/>
  <line class="cls-1" x1="7.51" y1="40.21" x2="18.12" y2="40.21"/>
  <line class="cls-1" x1="12.81" y1="45.65" x2="12.87" y2="31.97"/>
</svg>