<?xml version="1.0" encoding="UTF-8"?>
<svg id="Layer_1" data-name="Layer 1" xmlns="http://www.w3.org/2000/svg" viewBox="0 0 220.18 165.42">
  <defs>
    <style>
      .cls-1 {
        fill: #fff;
      }

      .cls-1, .cls-2 {
        stroke-width: .75px;
      }

      .cls-1, .cls-2, .cls-3 {
        stroke: #fff;
        stroke-miterlimit: 10;
      }

      .cls-2, .cls-3 {
        fill: none;
      }

      .cls-3 {
        stroke-width: .25px;
      }
    </style>
  </defs>
  <path class="cls-2" d="M26.67,84.22s.67-3.61,3.85-5.31c2.47-1.32,6.45-1.5,12.81,2.08,0,0-10.43,5.9-16.66,3.23Z"/>
  <path class="cls-3" d="M25.91,80.2s.87-7.71,14.62-4.14"/>
  <path class="cls-2" d="M21.84,73.23c2.9-4.49,9.12-8.9,21.84-1.44.26.16.43.44.43.75v.53c0,.61-.62,1.03-1.18.8-3.37-1.4-13.23-4.75-19.81.5-.78.62-1.81-.3-1.27-1.13Z"/>
  <ellipse class="cls-2" cx="35.2" cy="81.26" rx="3.04" ry="2.92"/>
  <circle class="cls-1" cx="35.2" cy="81.26" r="1.17"/>
  <path class="cls-2" d="M83.41,71.17s-9.76-13.02-27.17-.36c0,0,.93,1.98,1.81,1.81s11.24-9.47,25.37-1.44Z"/>
  <path class="cls-3" d="M59.77,76.3s7.76-8.18,17.63-1.18"/>
  <path class="cls-2" d="M76.72,78.33s-9.41-9.46-15.77,1.75c0,0,8.49.98,15.77-1.75Z"/>
  <circle class="cls-2" cx="68.83" cy="77.43" r="2.42"/>
  <circle class="cls-1" cx="68.83" cy="77.43" r=".9"/>
  <path class="cls-2" d="M45.43,73.19s4.56,8.29,1.37,15.54-5.29,7.82-2.56,14.72"/>
  <path class="cls-1" d="M49.67,102.87s-2.32-3.56-3.96-1.09c0,0,.61,2.33,3.96,1.09Z"/>
  <path class="cls-1" d="M54.89,102.07s.9-3.51,4.88-1.6c0,0,.09,1.6-4.88,1.6Z"/>
  <path class="cls-2" d="M61.74,103.23s2.1-5.26-.98-7.56c-2.72-2.03-5.73-2.32-5.87-10.76"/>
  <path class="cls-3" d="M47.94,95.58s3.2-1.38,7.56,0"/>
  <path class="cls-2" d="M21.69,115.26s-9.48-32.21-4.09-42.98c0,0-1.68-18.04-1.66-21.79s9.64-11.5,19.26-10.09,20.54-2.82,22.12-4.46,18.48.23,22.23,0-1.68,9.62,3.85,22.29,10.46,14.83,9.99,24.19,1.73,13.43,1.44,15.91-2.16,16.93-2.16,16.93c0,0-3.57,14.78-10.24,18.81-.37.22-.85.07-1-.34-.92-2.56-3.89-11.39-4.05-18.43-.19-8.33-14-8.81-14-8.81l-6.07-.48-2.44,1.9s-7.68-2.39-10.78-.96-6.39,3.91-7.74,7.83c-.38,1.09-2.51,16.65-3.04,20.52-.05.38-.51.55-.79.3-1.99-1.78-7.87-7.92-10.85-20.34Z"/>
  <path class="cls-2" d="M41.28,119.82c1.47-.56,5.48-1.83,10.44-1.37,0,0,17.88-1.76,20.52-2.79s-12.89,12.94-30.97,4.68c-.23-.1-.22-.44.01-.53Z"/>
  <path class="cls-2" d="M72.23,115.66c-1.47-2.54-19.29-.63-19.29-.63,0,0-10.38-.82-11.66,4.79"/>
  <path class="cls-2" d="M94.84,98.34s-1.43,11.26-1.48,23.49-5.51,29.99-14.77,35.72-25.8,7.5-25.8,7.5c0,0-21.49-4.26-29.55-40.06"/>
  <path class="cls-2" d="M23.24,122.59c1.17,1.78-2,5.47-1.29,6.89s-1.31,3.68-1.31,3.68l-.54,12.36s-.51-13.37-1.21-14.72.22-2.9.22-2.9c0,0,2.23,1.41,0-1.63s-1.96-6.22-1.96-6.22c-1.42-3.65,0-7.47,0-7.47-2.53-3.6-3.52-6.81-4.32-9.88s1.26-.6-1.08-8.65c-1.47-5.03-.68-6.02.12-6.05.48-.02.96.3.96.3,0,0,7.3,19.9,10.15,31.46"/>
  <path class="cls-2" d="M18.98,122.13c-.09-.05-.2,0-.19.11.06.72.36,2.44,1.93,2.77,1.99.41,1.81-1.86,1.81-2.4,0-.49-2.72-.03-3.55-.48Z"/>
  <path class="cls-2" d="M17.16,120.06c.56-1.82,1.63-1.57,1.63-1.57,0,0,.87-.05.74.4s-1.4.87-.74,3.34"/>
  <path class="cls-2" d="M12.84,88.32c-2.52-4.86-5.01-16.03-5.01-16.03l-1.17-4.51-2.04-1.18s-2.28,1.03,2.2-6.25c0,0-3.75-.96-4.85-.59s.59-3.53,3.6-5.51l-3.94-.94,2.42-1.17-2.42-4.61,3.11,2.65-3.78-5.96,4.26,1.8-1.32-13.2,3,3.48-1.69-7.87s3.19,1.94,5.02,1.94-.82-5.9-.99-7.53l2.94,1.96.66-3.59s4.24,1.14,5.54,0,0-5.22,0-5.22c0,0,6.74,2.11,7.53.4s2.95-3.98,2.95-3.98c0,0,1.02,3.07,2.16,1.93s2.2-2.84,2.2-2.84c0,0,2.59,1.25,5.03.68s7.22-4.43,7.22-4.43c0,0,3.75-3.3,4.78-4.43s-1.14,4.66-1.14,4.66c0,0,4.78-5.34,4.43-6.25,0,0-.47,6.2.96,5.63s6.21-2.15,6.76-1.49-3.4,1.21-3.29,2.2,3.84,1.21,3.84,1.21c0,0,6.26-4.39,7.13-3.73s-3.07,4.06-3.07,4.06c0,0,8.45-4.83,8.45-5.6s-3.51,6.8-1.98,7.13,3.18,1.87,2.85,0-1-4.88,2.36.19c0,0,.71,2.71,0,4.79s2.64.64,4.5-2.29,4.36-1,4.36-1c0,0-3.21.43-2.57,3.29s4.79-2.53,4.79-2.53c0,0-2.16,4.96-1.83,5.18,0,0-.43,3.34,5.39,3.67,0,0-3.23,2.59.54,4.1,0,0,1.08,2.4.83,4.38s4.52,1.73,4.52,1.73c0,0-1.73,4.65-.99,6.26s4.09,6.88,4.89,7.12-1.86,1.36-2.54.93,3.16,15.12.93,28.08c0,0-1.1,1.36-2.08,3.16-.14.25-.28.52-.41.79-.66,1.34-1.18,2.83-1.14,4.15,0,0,.97,12.34-2.92,26.35"/>
  <path class="cls-2" d="M98.72,77.43s4.78-3.75,6.06,2.83,1.74,14.89,0,20.28c0,0-1.83.18-2.01,5.11,0,0-.37,4.83-1.45,5.88,0,0,.26-4.13-.23-4.62s-.72-.52-1.12.03-.2,3.97-.2,3.97c0,0,.33,3.41-.13,4s-2.13,2.1-2.79-1.21c0,0,1.74-1.25,2.82-1.15"/>
  <path class="cls-2" d="M93.59,113.41c.76-.67,2.03,0,2.03,0,0,0-.06,3.31,2.54,5.06l.09,3.33s-.97.71-.47,3.77.47,9.42.47,9.42l.82-8.97s2.13-1.5.61-4.53l-.09-4.42s2.15-.09,1.73-5.54"/>
</svg>