<?xml version="1.0" encoding="UTF-8"?>
<svg id="layer" xmlns="http://www.w3.org/2000/svg" viewBox="0 0 145.19 194.18">
  <defs>
    <style>
      .cls-1 {
        fill: none;
        stroke: #fff;
        stroke-miterlimit: 10;
        stroke-width: 15px;
      }

      .cls-2 {
        fill: #fff;
      }
    </style>
  </defs>
  <g id="Pluto">
    <path class="cls-2" d="M72.59,0c-21.02,0-38.05,17.04-38.05,38.05s17.04,38.05,38.05,38.05,38.05-17.04,38.05-38.05S93.61,0,72.59,0ZM72.59,65.3c-15.05,0-27.25-12.2-27.25-27.25s12.2-27.25,27.25-27.25,27.25,12.2,27.25,27.25-12.2,27.25-27.25,27.25Z"/>
    <path class="cls-2" d="M124.58,38.05c0,28.71-23.28,51.99-51.99,51.99s-51.99-23.28-51.99-51.99H0c0,40.09,32.5,72.59,72.59,72.59s72.59-32.5,72.59-72.59h-20.61Z"/>
    <line class="cls-1" x1="72.59" y1="194.18" x2="72.59" y2="97.31"/>
    <line class="cls-1" x1="28.85" y1="150.98" x2="116.34" y2="150.98"/>
  </g>
</svg>